<?xml version="1.0" encoding="utf-8"?>
<!-- Generator: Adobe Illustrator 27.5.0, SVG Export Plug-In . SVG Version: 6.00 Build 0)  -->
<svg version="1.1" xmlns="http://www.w3.org/2000/svg" xmlns:xlink="http://www.w3.org/1999/xlink" x="0px" y="0px"
	 viewBox="0 0 2560 1440" style="enable-background:new 0 0 2560 1440;" xml:space="preserve">
<g id="BACKGROUND">
	<rect style="fill:#F0E7C5;" width="2560" height="1440"/>
</g>
<g id="PHOTOS">
	<g>
		<defs>
			<path id="SVGID_1_" d="M1497.725,799.641l0.002-0.001c4.365-4.029,8.917-7.72,13.618-11.1
				c11.149-8.016,16.763-21.522,14.937-35.132c-12.035-89.697,18.141-183.6,89.699-249.644l0,0
				c116.71-107.716,298.643-100.426,406.36,16.284c107.717,116.71,100.427,298.644-16.283,406.36l0,0
				c-71.557,66.044-167.574,88.61-256.021,69.436c-13.419-2.909-27.332,1.606-36.215,12.078c-3.745,4.415-7.789,8.657-12.154,12.686
				l-0.002,0.001c-61.017,56.315-156.138,52.504-212.454-8.514C1432.896,951.077,1436.708,855.957,1497.725,799.641z"/>
		</defs>
		<use xlink:href="#SVGID_1_"  style="overflow:visible;fill:#606060;"/>
		<clipPath id="SVGID_00000175315644652364290680000002510128453344255422_">
			<use xlink:href="#SVGID_1_"  style="overflow:visible;"/>
		</clipPath>
	</g>
</g>
<g id="OBJECTS">
	<g>
		<defs>
			<rect id="SVGID_00000089532045470954596860000017488747429412119197_" width="2560" height="1440"/>
		</defs>
		<clipPath id="SVGID_00000157300809361118011820000003262975191763655818_">
			<use xlink:href="#SVGID_00000089532045470954596860000017488747429412119197_"  style="overflow:visible;"/>
		</clipPath>
		<path style="clip-path:url(#SVGID_00000157300809361118011820000003262975191763655818_);fill:#DBCFA6;" d="M1514.994,1440
			c0,0,24.141-101.382,96.563-107.401c72.423-6.018,105.183,33.781,182.39,18.913c87.364-16.823,102.175-119.236,242.192-131.697
			c140.017-12.461,101.789,74.221,303.997,93.278c128.771,12.136,176.919-50.049,285.338-58.64
			C2814.291,1239.493,2818.6,1440,2818.6,1440H1514.994z"/>
		<path style="clip-path:url(#SVGID_00000157300809361118011820000003262975191763655818_);fill:#DBCFA6;" d="M1109.924,0
			c0,0-24.141,101.382-96.563,107.401c-72.423,6.018-105.183-33.781-182.39-18.913c-87.364,16.823-102.175,119.236-242.192,131.697
			c-140.017,12.461-101.789-74.221-303.997-93.278c-128.771-12.136-176.919,50.05-285.337,58.64
			C-189.373,200.507-193.682,0-193.682,0H1109.924z"/>
		<g style="clip-path:url(#SVGID_00000157300809361118011820000003262975191763655818_);">
			<path style="fill:#C32149;" d="M2483.001,1129.737c-5.336-1.894-7.693-8.848,15.315-57.341
				c21.839-46.03,48.444-76.648,51.31-75.98c2.742,0.84-8.989,36.08-31.464,82.856
				C2494.656,1128.649,2488.423,1132.235,2483.001,1129.737z"/>
			<path style="fill:#C32149;" d="M2506.605,1171.81c-5.24-3.914-6.713-13.27,30.103-65.367
				c35.808-50.236,76.064-81.575,79.065-80.41c2.894,1.405-21.717,41.345-58.572,93.604
				C2519.351,1173.861,2512.123,1176.517,2506.605,1171.81z"/>
			<path style="fill:#C32149;" d="M2396.404,1054.764c15.73,1.849,23.969,3.821,28.11,6.004c-1.454-4.962-2.238-15.124-2.083-35.277
				c0.051-35.44,3.872-63.119,5.97-63.417c2.086-0.283,9.685,25.327,9.778,60.32c0.069,37.657-4.023,41.691-8.403,42.634
				c-0.509,0.107-0.999,0.166-1.467,0.143c0.002,0.024,0.005,0.045,0.007,0.069c1.034,0.286,7.514,5.702,14.416,13.394
				c2.766,3.149,5.487,6.376,8.189,9.638c1.773,0.624,3.088,1.31,4.049,2.049c-0.547-7.296,0.522-20.492,4.241-44.167
				c6.848-45.112,18.868-78.14,21.711-78.166c2.77,0.059,5.703,32.79-1.238,77.602c-7.467,48.526-13.043,53.348-18.767,53.415
				c-0.5,0.024-0.983,0.009-1.443-0.062c6.195,7.984,12.205,16.297,18.02,24.974c0.318,0.355,0.569,0.731,0.763,1.127
				c18.934,28.445,35.773,60.773,50.205,98.032c-1.472-7.443,5.389-23.453,43.238-68.702c46.215-54.668,96.219-88.173,99.311-86.687
				c3.019,1.689-30.948,46.821-78.551,104.911c-48.368,59.488-56.344,61.148-61.814,54.65c-0.438-0.473-0.838-0.993-1.187-1.57
				c8.435,22.078,16.037,45.863,22.733,71.593c0.288,0.542,0.51,1.118,0.686,1.719c-0.88-9.715,8.252-30.037,51.495-84.031
				c54.299-67.116,113.353-108.64,117-107.088c3.551,1.751-37.178,56.675-93.105,129.1c-57.252,74.655-66.457,76.509-72.778,68.255
				c-0.912-1.095-1.697-2.351-2.176-3.939c0.019,0.204,0.029,0.414,0.044,0.621c6.844,26.969,12.707,56.045,17.524,87.457
				c0.484-13.529,13.685-39.75,67.502-105.172c69.571-83.947,145.528-137.257,149.655-135.498
				c3.861,1.886-52.333,73.127-123.471,166.379c-73.394,96.088-84.191,96.217-91.101,84.347c-0.574-0.96-1.094-1.979-1.518-3.099
				c2.32,15.793,4.381,32.161,6.169,49.151c2.643,25.837,2.493,49.267,0.653,50.226c-1.91,0.966-4.711-20.803-7.157-46.633
				c-1.188-12.674-2.542-24.973-4.026-36.984c-4.867,13.636-23.131,29.321-92.721,40.266
				c-79.333,10.183-136.9-19.825-135.996-26.197c1.107-7.075,63.722-22.006,140.421-33.654c55.409-9.428,76.941-9.749,85.152-3.906
				c-3.819-26.396-8.373-51.168-13.642-74.413c-5.477,9.39-22.423,19.35-75.459,27.51c-65.705,8.986-114.42-8.282-113.513-13.532
				c1.093-5.666,53.787-22.114,117.452-31.406c38.651-6.165,57.348-6.959,66.272-4.242c-5.158-20.139-10.876-39.1-17.136-56.96
				c-3.285,8.121-16.377,17.589-64.974,30.535c-57.469,14.839-101.691,8.715-101.141,4.083
				c0.707-4.756,46.645-26.203,102.284-40.415c34.6-9.06,50.783-11.068,58.336-9.226c-5.942-15.621-12.312-30.388-19.096-44.356
				c-1.159,8.262-7.176,16.48-59.432,20.355c-49.35,3.374-85.134-7.739-84.193-11.697c0.995-4.128,40.667-16.274,88.838-19.565
				c29.707-2.256,43.662-1.418,50.01,1.337c-6.471-12.621-13.291-24.578-20.439-35.936c-1.187,6.588-7.662,12.905-50.199,18.163
				c-42.524,5.125-73.69-1.659-73.012-5.084c0.736-3.495,34.598-16.221,76.179-21.049c22.915-2.772,34.893-2.838,41.056-1.275
				c-5.168-7.78-10.503-15.263-15.99-22.48c-1.937,5.945-9.06,10.791-46.935,9.744c-38.507-1.159-65.244-12.213-64.406-15.402
				c0.839-3.283,31.554-10.294,69.532-8.988c16.168,0.44,26.338,1.481,32.667,2.999c-1.979-2.426-3.975-4.824-5.991-7.186
				c-6.467-7.313-12.155-13.058-13.168-14.503c0.031,0.758-0.095,1.54-0.292,2.349c-1.274,5.226-5.05,9.578-36.439,5.844
				c-29.379-3.555-49.654-14.25-49.011-16.735C2343.26,1054.524,2367.129,1051.169,2396.404,1054.764z"/>
		</g>
		<g style="clip-path:url(#SVGID_00000157300809361118011820000003262975191763655818_);">
			<path style="fill:#FFB52C;" d="M2282.264,1256.998c-5.388,1.74-11.487-2.35-22.692-54.842
				c-10.636-49.825-8.12-90.309-5.438-91.521c2.688-1,14.792,34.114,25.377,84.919
				C2290.857,1249.05,2288.088,1255.686,2282.264,1256.998z"/>
			<path style="fill:#FFB52C;" d="M2326.581,1276.061c-6.54,0.077-13.396-6.457-15.827-70.204
				c-2.1-61.656,10.818-111.01,13.91-111.909c3.152-0.643,7.886,46.031,10.383,109.93
				C2337.948,1269.942,2333.823,1276.444,2326.581,1276.061z"/>
			<path style="fill:#FFB52C;" d="M2167.929,1250.099c13.615-8.092,21.356-11.535,25.971-12.318
				c-4.17-3.057-10.969-10.649-23.096-26.746c-21.501-28.172-35.29-52.475-33.805-53.986c1.484-1.493,23.085,14.225,44.428,41.956
				c22.943,29.86,22.146,35.551,19.242,38.962c-0.34,0.395-0.693,0.739-1.078,1.006c0.016,0.018,0.031,0.033,0.047,0.05
				c0.995-0.401,9.433-0.039,19.588,1.873c4.111,0.82,8.233,1.728,12.361,2.676c1.787-0.582,3.249-0.837,4.461-0.834
				c-4.869-5.461-12.041-16.59-23.478-37.65c-21.982-39.985-32.512-73.517-30.27-75.267c2.235-1.637,24.459,22.571,46.185,62.375
				c23.565,43.072,22.069,50.29,17.564,53.823c-0.382,0.323-0.775,0.604-1.183,0.827c9.772,2.575,19.597,5.523,29.489,8.878
				c0.468,0.088,0.896,0.235,1.291,0.431c32.325,11.079,65.345,26.515,99.452,47.329c-5.693-5.015-9.975-21.899-7.424-80.835
				c3.471-71.501,22.812-128.499,26.171-129.199c3.424-0.494,3.884,55.99,1.391,131.052c-2.25,76.637-7.574,82.803-15.868,80.968
				c-0.636-0.109-1.269-0.279-1.897-0.525c20.117,12.405,40.611,26.671,61.567,43.033c0.558,0.256,1.085,0.578,1.589,0.948
				c-6.603-7.18-11.704-28.868-10.184-98.027c2.324-86.299,23.978-155.166,27.818-156.151c3.885-0.768,4.926,67.602,4.537,159.107
				c-0.086,94.08-6.269,101.148-16.305,98.435c-1.39-0.315-2.776-0.836-4.122-1.805c0.139,0.151,0.274,0.312,0.413,0.466
				c21.826,17.256,44.156,36.781,67.073,58.796c-7.839-11.037-13.294-39.882-10.324-124.544
				c4.221-108.947,32.134-197.447,36.48-198.559c4.212-0.849,2.892,89.877,3.083,207.166c0.123,120.911-8.372,127.577-21.074,122.35
				c-1.039-0.413-2.071-0.906-3.089-1.538c11.441,11.131,23.027,22.876,34.773,35.28c17.803,18.911,31.926,37.606,31.047,39.487
				c-0.93,1.927-16.386-13.656-34.027-32.68c-8.647-9.342-17.198-18.285-25.676-26.921c4.423,13.786-0.546,37.342-49.154,88.332
				c-56.807,56.306-120.759,67.468-123.914,61.858c-3.421-6.291,37.225-56.206,91.05-112.074
				c38.268-41.165,55.172-54.508,65.243-54.859c-19.076-18.639-37.75-35.542-56.062-50.798c1.359,10.785-6.044,28.995-43.199,67.711
				c-46.713,47.072-95.892,62.97-98.363,58.25c-2.576-5.164,29.27-50.252,74.177-96.328c26.945-28.389,41.309-40.383,50.047-43.65
				c-16.337-12.856-32.402-24.438-48.229-34.815c2.327,8.446-2.314,23.921-33.035,63.74c-36.615,46.713-75.454,68.729-77.832,64.717
				c-2.33-4.207,21.113-49.159,56.657-94.263c21.969-28.224,33.598-39.656,40.716-42.784c-14.213-8.792-28.247-16.647-42.124-23.615
				c4.102,7.265,4.319,17.448-34.822,52.287c-37.137,32.675-72.306,45.6-73.965,41.886c-1.719-3.883,22.401-37.641,58.652-69.533
				c22.218-19.848,33.809-27.665,40.525-29.336c-12.81-6.089-25.493-11.438-38.073-16.112c3.062,5.953,1.76,14.905-28.823,44.935
				c-30.653,29.917-59.524,43.472-61.067,40.34c-1.541-3.223,17.614-33.91,47.698-63.018c16.511-16.129,25.982-23.462,31.826-25.967
				c-8.833-3.037-17.617-5.736-26.361-8.132c2.075,5.899-0.636,14.076-31.347,36.265c-31.283,22.485-59.232,29.958-60.505,26.917
				c-1.33-3.117,18.8-27.353,49.75-49.4c13.107-9.478,21.815-14.832,27.762-17.474c-3.045-0.724-6.088-1.415-9.125-2.065
				c-9.581-1.877-17.589-2.981-19.271-3.513c0.485,0.584,0.86,1.28,1.196,2.042c2.165,4.924,1.811,10.675-25.383,26.789
				c-25.49,15.034-48.091,18.865-49.09,16.501C2125.583,1282.21,2142.498,1265.038,2167.929,1250.099z"/>
		</g>
		<g style="clip-path:url(#SVGID_00000157300809361118011820000003262975191763655818_);">
			<path style="fill:#C32149;" d="M67.765,303.044c5.336,1.894,7.693,8.848-15.315,57.341c-21.838,46.03-48.444,76.648-51.309,75.98
				c-2.742-0.84,8.989-36.08,31.464-82.856C56.111,304.133,62.343,300.546,67.765,303.044z"/>
			<path style="fill:#C32149;" d="M44.161,260.971c5.24,3.914,6.713,13.27-30.103,65.367c-35.808,50.236-76.064,81.575-79.065,80.41
				c-2.894-1.405,21.717-41.345,58.572-93.604C31.415,258.92,38.643,256.264,44.161,260.971z"/>
			<path style="fill:#C32149;" d="M154.362,378.017c-15.73-1.849-23.969-3.82-28.11-6.004c1.454,4.962,2.238,15.124,2.083,35.277
				c-0.051,35.44-3.872,63.119-5.97,63.417c-2.086,0.283-9.685-25.327-9.778-60.32c-0.069-37.657,4.023-41.691,8.402-42.634
				c0.509-0.107,0.999-0.166,1.467-0.144c-0.002-0.024-0.005-0.045-0.007-0.069c-1.034-0.286-7.514-5.702-14.416-13.393
				c-2.766-3.15-5.487-6.376-8.189-9.638c-1.773-0.624-3.088-1.31-4.049-2.049c0.547,7.296-0.522,20.492-4.241,44.167
				c-6.848,45.112-18.868,78.14-21.711,78.167c-2.769-0.059-5.703-32.79,1.238-77.602c7.467-48.526,13.043-53.348,18.767-53.415
				c0.5-0.024,0.983-0.009,1.442,0.062c-6.195-7.984-12.205-16.297-18.02-24.974c-0.318-0.355-0.569-0.731-0.763-1.127
				c-18.934-28.445-35.773-60.773-50.205-98.032c1.472,7.443-5.389,23.453-43.238,68.702
				c-46.215,54.668-96.219,88.173-99.311,86.687c-3.019-1.689,30.948-46.821,78.551-104.91
				c48.368-59.488,56.343-61.148,61.815-54.65c0.438,0.473,0.838,0.993,1.187,1.57c-8.435-22.077-16.037-45.863-22.733-71.593
				c-0.288-0.542-0.51-1.118-0.686-1.719c0.88,9.715-8.252,30.037-51.496,84.031c-54.299,67.116-113.353,108.64-117,107.088
				c-3.551-1.751,37.179-56.675,93.105-129.101c57.252-74.655,66.457-76.509,72.778-68.255c0.912,1.095,1.697,2.351,2.176,3.939
				c-0.019-0.204-0.029-0.414-0.044-0.621c-6.844-26.969-12.707-56.045-17.524-87.457c-0.484,13.529-13.685,39.75-67.502,105.173
				c-69.571,83.947-145.528,137.257-149.655,135.498c-3.861-1.886,52.333-73.127,123.471-166.379
				c73.394-96.088,84.191-96.217,91.101-84.347c0.574,0.96,1.094,1.979,1.517,3.099c-2.32-15.793-4.381-32.162-6.169-49.151
				c-2.643-25.837-2.494-49.267-0.653-50.227c1.91-0.965,4.711,20.804,7.157,46.633C-19.663-3.61-18.309,8.689-16.826,20.7
				C-11.958,7.064,6.305-8.621,75.896-19.566C155.228-29.749,212.796,0.259,211.891,6.631
				c-1.107,7.075-63.722,22.006-140.421,33.654c-55.409,9.428-76.941,9.749-85.152,3.906c3.819,26.396,8.373,51.168,13.642,74.413
				c5.477-9.39,22.423-19.35,75.459-27.51c65.705-8.986,114.42,8.282,113.513,13.532c-1.093,5.666-53.787,22.114-117.452,31.406
				c-38.651,6.165-57.348,6.959-66.272,4.242c5.159,20.139,10.876,39.1,17.137,56.96c3.285-8.121,16.377-17.589,64.974-30.535
				c57.469-14.839,101.691-8.715,101.141-4.083c-0.707,4.756-46.645,26.203-102.284,40.415c-34.6,9.06-50.783,11.068-58.337,9.226
				c5.942,15.621,12.312,30.388,19.096,44.356c1.159-8.262,7.176-16.48,59.432-20.355c49.35-3.374,85.134,7.739,84.193,11.697
				c-0.995,4.128-40.667,16.274-88.838,19.565c-29.707,2.256-43.662,1.418-50.011-1.337c6.471,12.621,13.291,24.578,20.439,35.936
				c1.187-6.588,7.662-12.905,50.199-18.163c42.525-5.125,73.69,1.659,73.012,5.084c-0.736,3.495-34.598,16.221-76.18,21.049
				c-22.915,2.772-34.893,2.838-41.056,1.275c5.168,7.78,10.503,15.263,15.99,22.48c1.937-5.945,9.06-10.791,46.935-9.744
				c38.507,1.16,65.244,12.213,64.406,15.402c-0.839,3.283-31.554,10.294-69.532,8.988c-16.169-0.44-26.338-1.481-32.667-2.999
				c1.978,2.426,3.974,4.824,5.991,7.186c6.467,7.313,12.155,13.058,13.168,14.503c-0.031-0.758,0.095-1.54,0.292-2.348
				c1.274-5.226,5.05-9.578,36.439-5.844c29.379,3.555,49.654,14.25,49.011,16.735C207.506,378.257,183.637,381.612,154.362,378.017
				z"/>
		</g>
		<g style="clip-path:url(#SVGID_00000157300809361118011820000003262975191763655818_);">
			<path style="fill:#FFB52C;" d="M268.502,175.783c5.388-1.74,11.487,2.35,22.692,54.842c10.636,49.825,8.12,90.309,5.438,91.521
				c-2.688,0.999-14.792-34.114-25.377-84.919C259.909,183.731,262.678,177.096,268.502,175.783z"/>
			<path style="fill:#FFB52C;" d="M224.186,156.721c6.54-0.076,13.396,6.458,15.827,70.204c2.1,61.656-10.818,111.01-13.91,111.909
				c-3.152,0.643-7.886-46.031-10.383-109.93C212.818,162.839,216.943,156.337,224.186,156.721z"/>
			<path style="fill:#FFB52C;" d="M382.837,182.682c-13.615,8.092-21.356,11.535-25.971,12.318
				c4.17,3.057,10.97,10.649,23.096,26.746c21.501,28.172,35.29,52.475,33.805,53.986c-1.484,1.493-23.085-14.225-44.428-41.955
				c-22.943-29.861-22.146-35.551-19.242-38.962c0.34-0.395,0.693-0.739,1.078-1.006c-0.016-0.018-0.031-0.033-0.048-0.05
				c-0.995,0.401-9.433,0.039-19.588-1.873c-4.111-0.82-8.233-1.728-12.361-2.676c-1.787,0.582-3.249,0.837-4.461,0.834
				c4.869,5.461,12.041,16.59,23.478,37.65c21.982,39.985,32.512,73.517,30.27,75.267c-2.235,1.637-24.459-22.571-46.185-62.375
				c-23.565-43.072-22.069-50.29-17.564-53.823c0.382-0.323,0.775-0.604,1.183-0.827c-9.772-2.575-19.597-5.523-29.489-8.878
				c-0.468-0.088-0.896-0.235-1.291-0.431c-32.325-11.079-65.345-26.515-99.452-47.329c5.693,5.015,9.975,21.899,7.423,80.835
				c-3.471,71.501-22.812,128.499-26.171,129.199c-3.424,0.494-3.883-55.99-1.391-131.052c2.25-76.637,7.574-82.803,15.869-80.968
				c0.636,0.11,1.269,0.28,1.897,0.525c-20.117-12.405-40.611-26.671-61.566-43.033c-0.558-0.256-1.085-0.578-1.589-0.948
				c6.603,7.18,11.704,28.868,10.184,98.027C118,268.183,96.346,337.05,92.506,338.035c-3.884,0.768-4.926-67.602-4.537-159.107
				c0.086-94.08,6.268-101.147,16.305-98.435c1.39,0.315,2.777,0.836,4.122,1.805c-0.139-0.151-0.274-0.312-0.413-0.466
				C86.157,64.576,63.828,45.052,40.91,23.037c7.839,11.037,13.294,39.882,10.324,124.544
				c-4.221,108.946-32.134,197.447-36.48,198.559c-4.212,0.849-2.892-89.877-3.083-207.166
				C11.549,18.062,20.044,11.396,32.745,16.623c1.039,0.413,2.071,0.907,3.089,1.538C24.393,7.03,12.807-4.715,1.061-17.119
				c-17.803-18.911-31.925-37.606-31.047-39.487c0.93-1.927,16.386,13.656,34.027,32.68c8.647,9.342,17.198,18.285,25.676,26.921
				c-4.423-13.786,0.546-37.342,49.154-88.332c56.807-56.306,120.759-67.468,123.914-61.858
				c3.421,6.291-37.225,56.206-91.05,112.074C73.467,6.045,56.563,19.388,46.492,19.739c19.076,18.639,37.75,35.542,56.062,50.798
				c-1.359-10.785,6.044-28.995,43.199-67.711c46.713-47.072,95.892-62.97,98.363-58.25c2.576,5.164-29.27,50.252-74.177,96.328
				c-26.945,28.389-41.309,40.383-50.047,43.65c16.337,12.856,32.402,24.438,48.229,34.815c-2.327-8.446,2.314-23.921,33.035-63.739
				C237.773,8.916,276.611-13.1,278.99-9.088c2.329,4.207-21.113,49.158-56.657,94.263c-21.969,28.224-33.598,39.656-40.716,42.784
				c14.213,8.792,28.247,16.647,42.124,23.615c-4.102-7.265-4.318-17.448,34.822-52.287c37.137-32.675,72.306-45.6,73.965-41.886
				c1.719,3.883-22.401,37.641-58.652,69.533c-22.218,19.847-33.809,27.665-40.525,29.336c12.81,6.089,25.493,11.438,38.072,16.112
				c-3.061-5.953-1.76-14.905,28.823-44.935c30.652-29.917,59.524-43.472,61.067-40.34c1.54,3.223-17.613,33.91-47.698,63.018
				c-16.511,16.129-25.982,23.462-31.826,25.967c8.833,3.037,17.617,5.736,26.361,8.132c-2.075-5.898,0.636-14.076,31.347-36.265
				c31.283-22.485,59.232-29.958,60.505-26.917c1.329,3.117-18.8,27.353-49.75,49.4c-13.107,9.478-21.815,14.832-27.762,17.474
				c3.045,0.724,6.088,1.415,9.125,2.065c9.58,1.877,17.589,2.981,19.271,3.512c-0.485-0.584-0.86-1.28-1.196-2.042
				c-2.165-4.924-1.811-10.675,25.383-26.789c25.49-15.034,48.091-18.865,49.09-16.501
				C425.182,150.571,408.269,167.743,382.837,182.682z"/>
		</g>
		<path style="clip-path:url(#SVGID_00000157300809361118011820000003262975191763655818_);fill:#FFFFFF;" d="M1395.827,359.504
			L1395.827,359.504c-4.71,0-9.154,1.288-13.088,3.56c-10.299-29.456-35.525-50.273-65.013-50.273h-0.001
			c-25.763,0-48.27,15.891-60.415,39.548c-3.047-0.938-6.249-1.448-9.556-1.448l0,0c-20.204,0-36.583,18.689-36.583,41.744l0,0
			h36.583h36.583h82.456h20.905h37.164l0,0C1424.861,374.337,1411.862,359.504,1395.827,359.504z"/>
		<g style="clip-path:url(#SVGID_00000157300809361118011820000003262975191763655818_);">
			<path style="fill:#88422C;" d="M1108.871,1329.792h40.344c16.781,0,24.088,11.475,33.12,30.594
				c0.135,0.287,0.271,0.576,0.408,0.869c13.628,29.224,15.531,9.376,41.716,49.478h-85.512L1108.871,1329.792z"/>
			<path style="fill:#A25C42;" d="M1031.331,1410.733c0,0,25.283-4.825,37.118-38.715c11.835-33.889,46.264-66.616,65.63-16.435
				s17.214,55.15,17.214,55.15H1031.331z"/>
		</g>
		<g style="clip-path:url(#SVGID_00000157300809361118011820000003262975191763655818_);">
			<path style="fill:#88422C;" d="M1827.22,1174.723h40.344c16.781,0,24.088,11.475,33.12,30.594
				c0.135,0.287,0.271,0.576,0.408,0.869c13.628,29.225,15.531,9.377,41.716,49.478h-85.513L1827.22,1174.723z"/>
			<path style="fill:#A25C42;" d="M1749.68,1255.664c0,0,25.283-4.825,37.118-38.715c11.835-33.889,46.264-66.616,65.63-16.435
				s17.214,55.15,17.214,55.15H1749.68z"/>
		</g>
		<g style="clip-path:url(#SVGID_00000157300809361118011820000003262975191763655818_);">
			<circle style="fill:#FFB52C;" cx="1418.011" cy="1130.642" r="212.126"/>
			<g>
				<g>
					<polygon style="fill:#1E1942;" points="1420.291,960.128 1431.83,1526.237 1406.305,1526.237 1417.844,960.128 					"/>
				</g>
				<g>
					<polygon style="fill:#1E1942;" points="1441.26,992.876 1421.658,1033.756 1416.477,1030.842 1441.235,992.862 					"/>
				</g>
				<g>
					<polygon style="fill:#1E1942;" points="1393.495,1083.217 1421.639,1127.749 1416.496,1130.731 1391.831,1084.182 					"/>
				</g>
				<g>
					<polygon style="fill:#1E1942;" points="1447.984,1187.409 1421.716,1244.531 1416.419,1241.833 1447.184,1187.001 					"/>
				</g>
				<g>
					<polygon style="fill:#1E1942;" points="1388.98,1269.132 1421.343,1304.144 1416.792,1307.967 1387.897,1270.041 					"/>
				</g>
			</g>
		</g>
		<g style="clip-path:url(#SVGID_00000157300809361118011820000003262975191763655818_);">
			
				<ellipse transform="matrix(0.7071 -0.7071 0.7071 0.7071 -578.548 945.7262)" style="fill:#C32149;" cx="852.318" cy="1171.232" rx="199.03" ry="199.03"/>
			<g>
				<g>
					<polygon style="fill:#1E1942;" points="854.458,1011.245 865.284,1542.406 841.334,1542.406 852.161,1011.245 					"/>
				</g>
				<g>
					<polygon style="fill:#1E1942;" points="874.131,1041.971 855.74,1080.328 850.879,1077.593 874.108,1041.958 					"/>
				</g>
				<g>
					<polygon style="fill:#1E1942;" points="829.316,1126.736 855.722,1168.518 850.897,1171.316 827.754,1127.641 					"/>
				</g>
				<g>
					<polygon style="fill:#1E1942;" points="880.441,1224.495 855.794,1278.091 850.824,1275.56 879.69,1224.112 					"/>
				</g>
				<g>
					<polygon style="fill:#1E1942;" points="825.079,1301.173 855.445,1334.024 851.174,1337.611 824.063,1302.026 					"/>
				</g>
			</g>
		</g>
		<path style="clip-path:url(#SVGID_00000157300809361118011820000003262975191763655818_);fill:#FFFFFF;" d="M978.111,284.478
			L978.111,284.478c-4.896,0-9.615,0.711-14.122,1.937c-17.85-30.485-50.857-51.018-88.734-51.018h0
			c-56.806,0-102.856,46.05-102.856,102.856h151.937h53.775h53.776C1031.886,308.554,1007.81,284.478,978.111,284.478z"/>
		<path style="clip-path:url(#SVGID_00000157300809361118011820000003262975191763655818_);fill:#FFFFFF;" d="M1855.512,141.26
			L1855.512,141.26c-9.667,0-18.786,2.643-26.859,7.305c-21.134-60.449-72.9-103.166-133.415-103.166l0,0
			c-52.869,0-99.056,32.609-123.979,81.157c-6.253-1.927-12.823-2.972-19.611-2.972l0,0c-41.461,0-75.072,38.353-75.072,85.663l0,0
			h75.072h75.072h169.21h42.898h76.264l0,0C1915.093,171.699,1888.418,141.26,1855.512,141.26z"/>
		<path style="clip-path:url(#SVGID_00000157300809361118011820000003262975191763655818_);fill:#FFB52C;" d="M2265.544,174.515
			c-3.547-2.602-8.532-1.835-11.134,1.712l-16.288,22.21v-32.876c0-4.399-3.566-7.966-7.966-7.966c-4.399,0-7.966,3.566-7.966,7.966
			v32.738l-16.186-22.071c-2.602-3.548-7.586-4.314-11.135-1.712c-3.547,2.601-4.314,7.586-1.712,11.134l28.061,38.265
			c0.327,0.445,0.781,0.713,1.175,1.07c0.515,3.901,3.72,6.959,7.762,6.959c4.002,0,7.174-3.001,7.74-6.846
			c0.444-0.384,0.938-0.691,1.3-1.183l28.061-38.265C2269.859,182.102,2269.092,177.117,2265.544,174.515z"/>
		<path style="clip-path:url(#SVGID_00000157300809361118011820000003262975191763655818_);fill:#FFB52C;" d="M1145.26,860.189
			c-3.547-2.602-8.533-1.835-11.134,1.712l-16.288,22.21v-32.876c0-4.399-3.566-7.966-7.966-7.966c-4.399,0-7.966,3.566-7.966,7.966
			v32.738l-16.185-22.071c-2.602-3.548-7.587-4.314-11.135-1.712c-3.547,2.602-4.314,7.586-1.712,11.134l28.062,38.265
			c0.327,0.445,0.781,0.713,1.175,1.07c0.515,3.901,3.72,6.959,7.762,6.959c4.002,0,7.174-3.001,7.74-6.846
			c0.444-0.384,0.938-0.691,1.3-1.183l28.061-38.265C1149.575,867.776,1148.808,862.791,1145.26,860.189z"/>
		<path style="clip-path:url(#SVGID_00000157300809361118011820000003262975191763655818_);fill:#FFB52C;" d="M2265.544,911.246
			c-3.547-2.602-8.532-1.835-11.134,1.712l-16.288,22.21v-32.876c0-4.399-3.566-7.966-7.966-7.966c-4.399,0-7.966,3.566-7.966,7.966
			v32.738l-16.186-22.071c-2.602-3.548-7.586-4.314-11.135-1.712c-3.547,2.602-4.314,7.587-1.712,11.134l28.061,38.265
			c0.327,0.445,0.781,0.713,1.175,1.07c0.515,3.901,3.72,6.959,7.762,6.959c4.002,0,7.174-3.001,7.74-6.846
			c0.444-0.384,0.938-0.691,1.3-1.183l28.061-38.265C2269.859,918.833,2269.092,913.848,2265.544,911.246z"/>
		<path style="clip-path:url(#SVGID_00000157300809361118011820000003262975191763655818_);fill:#FFB52C;" d="M164.907,680.066
			c-3.547-2.602-8.533-1.835-11.134,1.712l-16.288,22.21v-32.877c0-4.399-3.566-7.966-7.966-7.966c-4.399,0-7.966,3.566-7.966,7.966
			v32.738l-16.186-22.071c-2.601-3.548-7.587-4.314-11.135-1.712c-3.547,2.602-4.314,7.587-1.712,11.134l28.061,38.265
			c0.327,0.445,0.781,0.713,1.175,1.07c0.515,3.901,3.72,6.959,7.762,6.959c4.002,0,7.174-3.001,7.74-6.846
			c0.444-0.384,0.938-0.691,1.299-1.183L166.62,691.2C169.222,687.652,168.455,682.667,164.907,680.066z"/>
		<path style="clip-path:url(#SVGID_00000157300809361118011820000003262975191763655818_);fill:#C32149;" d="M2426.176,237.966
			c-3.547-2.602-8.533-1.835-11.134,1.712l-16.287,22.21v-32.877c0-4.399-3.566-7.966-7.966-7.966s-7.966,3.566-7.966,7.966v32.738
			l-16.186-22.071c-2.602-3.548-7.587-4.314-11.135-1.712c-3.547,2.602-4.314,7.587-1.712,11.134l28.062,38.265
			c0.327,0.445,0.781,0.713,1.175,1.07c0.515,3.901,3.72,6.959,7.762,6.959c4.001,0,7.174-3.001,7.74-6.846
			c0.444-0.384,0.938-0.691,1.299-1.183l28.062-38.265C2430.491,245.552,2429.725,240.567,2426.176,237.966z"/>
		<path style="clip-path:url(#SVGID_00000157300809361118011820000003262975191763655818_);fill:#C32149;" d="M120.289,1350.008
			c-3.547-2.602-8.533-1.835-11.134,1.712l-16.287,22.21v-32.876c0-4.399-3.566-7.966-7.966-7.966s-7.966,3.566-7.966,7.966v32.738
			l-16.186-22.071c-2.602-3.548-7.587-4.314-11.135-1.712c-3.547,2.602-4.314,7.587-1.712,11.134l28.062,38.265
			c0.327,0.445,0.78,0.713,1.175,1.07c0.515,3.901,3.72,6.959,7.762,6.959c4.002,0,7.174-3.001,7.74-6.846
			c0.444-0.384,0.938-0.691,1.299-1.183l28.062-38.265C124.604,1357.595,123.837,1352.61,120.289,1350.008z"/>
		<path style="clip-path:url(#SVGID_00000157300809361118011820000003262975191763655818_);fill:#C32149;" d="M2304.136,672.066
			c-3.547-2.602-8.532-1.835-11.134,1.712l-16.287,22.21v-32.876c0-4.399-3.566-7.966-7.966-7.966c-4.399,0-7.966,3.566-7.966,7.966
			v32.738l-16.185-22.071c-2.602-3.548-7.587-4.314-11.135-1.712c-3.547,2.602-4.314,7.587-1.712,11.134l28.062,38.265
			c0.327,0.445,0.781,0.713,1.175,1.07c0.515,3.901,3.72,6.959,7.762,6.959c4.002,0,7.174-3.001,7.74-6.846
			c0.444-0.384,0.938-0.691,1.299-1.183l28.062-38.265C2308.451,679.652,2307.685,674.667,2304.136,672.066z"/>
		<path style="clip-path:url(#SVGID_00000157300809361118011820000003262975191763655818_);fill:#C32149;" d="M706.12,416.122
			c-3.547-2.602-8.533-1.835-11.134,1.712l-16.287,22.21v-32.876c0-4.399-3.566-7.966-7.966-7.966c-4.399,0-7.966,3.566-7.966,7.966
			v32.738l-16.186-22.071c-2.602-3.548-7.586-4.314-11.135-1.712c-3.547,2.602-4.314,7.587-1.712,11.134l28.062,38.265
			c0.327,0.445,0.781,0.713,1.175,1.07c0.515,3.901,3.72,6.959,7.762,6.959c4.002,0,7.174-3.001,7.74-6.846
			c0.444-0.384,0.938-0.691,1.299-1.183l28.062-38.265C710.435,423.709,709.669,418.724,706.12,416.122z"/>
		<path style="clip-path:url(#SVGID_00000157300809361118011820000003262975191763655818_);fill:#FF4E07;" d="M2332.663,303.745
			c-3.547-2.602-8.533-1.835-11.134,1.712l-16.287,22.21v-32.876c0-4.399-3.566-7.966-7.966-7.966s-7.966,3.566-7.966,7.966v32.738
			l-16.185-22.071c-2.602-3.548-7.587-4.314-11.135-1.712c-3.547,2.602-4.314,7.587-1.712,11.134l28.062,38.265
			c0.327,0.445,0.781,0.713,1.175,1.07c0.515,3.901,3.72,6.959,7.762,6.959c4.001,0,7.174-3.001,7.74-6.846
			c0.444-0.384,0.938-0.691,1.299-1.183l28.062-38.265C2336.978,311.331,2336.211,306.346,2332.663,303.745z"/>
		<path style="clip-path:url(#SVGID_00000157300809361118011820000003262975191763655818_);fill:#FFB52C;" d="M297.231,489.535
			c-2.442-1.791-5.873-1.263-7.664,1.179l-11.211,15.288v-22.63c0-3.028-2.454-5.483-5.483-5.483c-3.028,0-5.483,2.455-5.483,5.483
			v22.534l-11.141-15.192c-1.791-2.442-5.222-2.969-7.664-1.179c-2.442,1.791-2.969,5.222-1.179,7.664l19.315,26.338
			c0.225,0.307,0.538,0.491,0.809,0.736c0.355,2.685,2.56,4.79,5.343,4.79c2.755,0,4.938-2.065,5.327-4.712
			c0.305-0.264,0.646-0.476,0.894-0.814l19.315-26.338C300.201,494.757,299.673,491.326,297.231,489.535z"/>
		<path style="clip-path:url(#SVGID_00000157300809361118011820000003262975191763655818_);fill:#C32149;" d="M407.797,533.21
			c-2.441-1.791-5.873-1.263-7.664,1.179l-11.211,15.288v-22.63c0-3.028-2.455-5.483-5.483-5.483c-3.028,0-5.483,2.455-5.483,5.483
			v22.534l-11.141-15.192c-1.791-2.442-5.222-2.969-7.664-1.179c-2.441,1.791-2.969,5.222-1.179,7.664l19.316,26.338
			c0.225,0.307,0.537,0.491,0.809,0.736c0.355,2.685,2.56,4.79,5.343,4.79c2.754,0,4.938-2.065,5.327-4.712
			c0.305-0.264,0.646-0.476,0.894-0.814l19.316-26.338C410.768,538.432,410.24,535.001,407.797,533.21z"/>
		<path style="clip-path:url(#SVGID_00000157300809361118011820000003262975191763655818_);fill:#FF4E07;" d="M343.43,578.487
			c-2.441-1.791-5.873-1.263-7.664,1.179l-11.211,15.288v-22.63c0-3.028-2.455-5.483-5.483-5.483s-5.483,2.455-5.483,5.483v22.534
			l-11.141-15.192c-1.791-2.442-5.222-2.969-7.664-1.179c-2.441,1.791-2.969,5.222-1.179,7.664l19.316,26.338
			c0.225,0.307,0.537,0.491,0.809,0.736c0.355,2.685,2.56,4.79,5.343,4.79c2.754,0,4.938-2.065,5.327-4.712
			c0.305-0.264,0.646-0.476,0.894-0.815l19.315-26.338C346.4,583.709,345.873,580.278,343.43,578.487z"/>
		<path style="clip-path:url(#SVGID_00000157300809361118011820000003262975191763655818_);fill:#FF4E07;" d="M2133.927,1049.587
			c-3.547-2.602-8.532-1.835-11.134,1.712l-16.287,22.21v-32.876c0-4.399-3.566-7.966-7.966-7.966c-4.399,0-7.966,3.566-7.966,7.966
			v32.738l-16.185-22.071c-2.602-3.548-7.587-4.314-11.135-1.712c-3.547,2.601-4.314,7.586-1.712,11.134l28.062,38.265
			c0.327,0.445,0.781,0.713,1.175,1.07c0.515,3.901,3.72,6.959,7.762,6.959c4.002,0,7.174-3.001,7.74-6.846
			c0.444-0.384,0.938-0.691,1.299-1.183l28.062-38.265C2138.243,1057.173,2137.476,1052.188,2133.927,1049.587z"/>
		<path style="clip-path:url(#SVGID_00000157300809361118011820000003262975191763655818_);fill:#FF4E07;" d="M2464.769,801.977
			c-3.547-2.602-8.533-1.835-11.134,1.712l-16.287,22.21v-32.876c0-4.399-3.566-7.966-7.966-7.966s-7.966,3.566-7.966,7.966v32.738
			l-16.185-22.071c-2.602-3.548-7.587-4.314-11.135-1.712c-3.547,2.602-4.314,7.586-1.712,11.134l28.062,38.265
			c0.327,0.445,0.781,0.713,1.175,1.07c0.515,3.901,3.72,6.959,7.762,6.959c4.001,0,7.174-3.001,7.74-6.846
			c0.444-0.384,0.938-0.691,1.299-1.183l28.062-38.265C2469.084,809.563,2468.317,804.578,2464.769,801.977z"/>
		<path style="clip-path:url(#SVGID_00000157300809361118011820000003262975191763655818_);fill:#FF4E07;" d="M648.222,1285.802
			c-3.547-2.602-8.533-1.835-11.134,1.712l-16.287,22.21v-32.876c0-4.399-3.566-7.966-7.966-7.966c-4.399,0-7.966,3.566-7.966,7.966
			v32.738l-16.185-22.071c-2.602-3.548-7.587-4.314-11.135-1.712c-3.547,2.601-4.314,7.586-1.712,11.134l28.062,38.265
			c0.327,0.445,0.781,0.713,1.175,1.07c0.515,3.901,3.72,6.959,7.762,6.959c4.002,0,7.174-3.001,7.74-6.846
			c0.444-0.384,0.938-0.691,1.299-1.183l28.062-38.265C652.537,1293.388,651.771,1288.403,648.222,1285.802z"/>
		<g style="clip-path:url(#SVGID_00000157300809361118011820000003262975191763655818_);">
			<circle style="fill:#FF4E07;" cx="270.819" cy="1071.301" r="220.953"/>
			<g>
				<g>
					<polygon style="fill:#1E1942;" points="273.194,893.692 285.213,1483.358 258.626,1483.358 270.644,893.692 					"/>
				</g>
				<g>
					<polygon style="fill:#1E1942;" points="295.035,927.803 274.617,970.384 269.221,967.348 295.009,927.788 					"/>
				</g>
				<g>
					<polygon style="fill:#1E1942;" points="245.283,1021.903 274.598,1068.288 269.241,1071.394 243.549,1022.909 					"/>
				</g>
				<g>
					<polygon style="fill:#1E1942;" points="302.039,1130.431 274.678,1189.93 269.161,1187.12 301.206,1130.006 					"/>
				</g>
				<g>
					<polygon style="fill:#1E1942;" points="240.579,1215.554 274.29,1252.024 269.549,1256.005 239.452,1216.501 					"/>
				</g>
			</g>
		</g>
	</g>
</g>
<g id="TEXTS">
	<text transform="matrix(1 0 0 1 536.4367 743.9938)" style="fill:#1E1942; font-family:'Krub-Bold'; font-size:57.1005px;">Explore &amp; Care</text>
	<g>
		<g>
			<path style="fill:#1E1942;" d="M795.109,804.994h-54.628c-5.534,0-10.021,4.534-10.021,10.127v55.196
				c0,5.593,4.487,10.125,10.021,10.125h54.628c5.535,0,10.022-4.532,10.022-10.125v-55.196
				C805.131,809.529,800.643,804.994,795.109,804.994z"/>
			<g>
				<path style="fill:#F0E7C5;" d="M759.739,860.597c16.388,0,25.352-13.58,25.352-25.355c0-0.386-0.008-0.769-0.026-1.152
					c1.742-1.257,3.253-2.827,4.446-4.613c-1.597,0.709-3.314,1.185-5.117,1.403c1.839-1.103,3.252-2.85,3.918-4.93
					c-1.722,1.02-3.628,1.763-5.657,2.162c-1.627-1.732-3.941-2.816-6.506-2.816c-4.921,0-8.911,3.991-8.911,8.91
					c0,0.701,0.078,1.381,0.231,2.032c-7.407-0.372-13.972-3.919-18.366-9.308c-0.765,1.316-1.208,2.846-1.208,4.478
					c0,3.091,1.574,5.82,3.967,7.415c-1.462-0.043-2.834-0.445-4.037-1.114c-0.003,0.037-0.003,0.076-0.003,0.114
					c0,4.317,3.073,7.919,7.151,8.738c-0.748,0.203-1.537,0.312-2.349,0.312c-0.574,0-1.132-0.056-1.676-0.16
					c1.135,3.54,4.424,6.116,8.324,6.189c-3.05,2.39-6.891,3.814-11.067,3.814c-0.718,0-1.427-0.04-2.124-0.122
					C750.022,859.121,754.704,860.597,759.739,860.597"/>
			</g>
		</g>
		<g>
			<path style="fill:#1E1942;" d="M892.12,804.994h-54.628c-5.534,0-10.021,4.534-10.021,10.127v55.196
				c0,5.593,4.487,10.125,10.021,10.125h54.628c5.535,0,10.022-4.532,10.022-10.125v-55.196
				C902.142,809.529,897.655,804.994,892.12,804.994z"/>
			<g>
				<g>
					<path style="fill-rule:evenodd;clip-rule:evenodd;fill:#F0E7C5;" d="M882.443,825.2c-4.68-4.684-10.903-7.263-17.533-7.266
						c-13.659,0-24.777,11.113-24.783,24.773c0,4.368,1.138,8.63,3.307,12.386l-3.515,12.839l13.138-3.446
						c3.619,1.974,7.695,3.012,11.843,3.017h0.01c13.659,0,24.778-11.116,24.783-24.778
						C889.698,836.107,887.121,829.884,882.443,825.2 M864.911,863.319h-0.008c-3.697-0.001-7.322-0.993-10.484-2.87l-0.751-0.447
						l-7.797,2.045l2.08-7.599l-0.489-0.779c-2.062-3.279-3.151-7.067-3.15-10.96c0.005-11.353,9.246-20.59,20.609-20.59
						c5.501,0.001,10.672,2.146,14.563,6.039c3.889,3.893,6.03,9.067,6.027,14.569C885.506,854.082,876.265,863.319,864.911,863.319
						"/>
					<path style="fill-rule:evenodd;clip-rule:evenodd;fill:#F0E7C5;" d="M876.209,847.895c-0.619-0.31-3.663-1.806-4.23-2.015
						c-0.569-0.204-0.981-0.308-1.393,0.313c-0.414,0.619-1.601,2.013-1.964,2.425c-0.359,0.414-0.721,0.465-1.341,0.156
						c-0.619-0.31-2.614-0.964-4.98-3.072c-1.839-1.641-3.082-3.669-3.444-4.289c-0.361-0.62-0.039-0.954,0.271-1.264
						c0.279-0.277,0.622-0.723,0.93-1.085c0.31-0.362,0.413-0.62,0.619-1.032c0.207-0.413,0.103-0.775-0.052-1.086
						c-0.155-0.308-1.393-3.355-1.91-4.595c-0.502-1.208-1.012-1.045-1.393-1.064c-0.359-0.018-0.774-0.02-1.186-0.02
						c-0.412,0-1.085,0.153-1.652,0.774c-0.568,0.619-2.167,2.118-2.167,5.163c0,3.049,2.219,5.991,2.529,6.405
						c0.309,0.412,4.367,6.666,10.578,9.347c1.477,0.639,2.632,1.019,3.53,1.305c1.483,0.47,2.834,0.403,3.901,0.244
						c1.19-0.177,3.664-1.498,4.181-2.944c0.515-1.445,0.515-2.686,0.36-2.945C877.242,848.36,876.831,848.206,876.209,847.895"/>
				</g>
			</g>
		</g>
		<g>
			<path style="fill:#1E1942;" d="M698.097,804.994H643.47c-5.535,0-10.022,4.534-10.022,10.127v55.196
				c0,5.593,4.487,10.125,10.022,10.125h54.627c5.535,0,10.022-4.532,10.022-10.125v-55.196
				C708.12,809.529,703.632,804.994,698.097,804.994z"/>
			<g>
				<path style="fill:#F0E7C5;" d="M674.617,867.698v-22.579h7.579l1.136-8.803h-8.715v-5.618c0-2.546,0.706-4.283,4.361-4.283
					l4.66-0.004v-7.87c-0.805-0.108-3.571-0.347-6.79-0.347c-6.719,0-11.319,4.102-11.319,11.633v6.489h-7.599v8.803h7.599v22.579
					H674.617z"/>
			</g>
		</g>
		<g>
			<path style="fill:#1E1942;" d="M601.086,804.994h-54.627c-5.535,0-10.022,4.534-10.022,10.127v55.196
				c0,5.593,4.487,10.125,10.022,10.125h54.627c5.535,0,10.023-4.532,10.023-10.125v-55.196
				C611.109,809.529,606.621,804.994,601.086,804.994z"/>
			<g>
				<g>
					<path style="fill:#F0E7C5;" d="M573.772,821.666c6.857,0,7.669,0.026,10.377,0.151c2.504,0.113,3.864,0.531,4.769,0.884
						c1.197,0.464,2.053,1.022,2.951,1.92c0.9,0.899,1.456,1.754,1.922,2.953c0.352,0.904,0.771,2.264,0.883,4.768
						c0.125,2.708,0.152,3.519,0.152,10.377c0,6.857-0.026,7.668-0.152,10.377c-0.113,2.502-0.531,3.863-0.883,4.768
						c-0.466,1.199-1.022,2.054-1.922,2.953c-0.898,0.898-1.755,1.455-2.951,1.921c-0.905,0.352-2.265,0.77-4.769,0.883
						c-2.707,0.123-3.521,0.15-10.377,0.15c-6.857,0-7.668-0.028-10.376-0.15c-2.504-0.114-3.864-0.532-4.769-0.883
						c-1.198-0.466-2.053-1.023-2.952-1.921c-0.899-0.899-1.456-1.754-1.923-2.953c-0.35-0.905-0.768-2.265-0.882-4.768
						c-0.124-2.709-0.15-3.52-0.15-10.377c0-6.858,0.026-7.67,0.15-10.377c0.115-2.504,0.532-3.864,0.882-4.768
						c0.467-1.199,1.024-2.054,1.923-2.953c0.898-0.898,1.754-1.456,2.952-1.92c0.905-0.353,2.265-0.771,4.769-0.884
						C566.104,821.692,566.915,821.666,573.772,821.666 M573.772,817.039c-6.974,0-7.848,0.03-10.588,0.155
						c-2.732,0.125-4.599,0.558-6.233,1.195c-1.688,0.656-3.121,1.533-4.547,2.961c-1.428,1.427-2.306,2.86-2.962,4.549
						c-0.636,1.633-1.069,3.501-1.193,6.233c-0.126,2.74-0.157,3.615-0.157,10.588c0,6.973,0.03,7.85,0.157,10.587
						c0.124,2.735,0.557,4.602,1.193,6.233c0.656,1.69,1.534,3.122,2.962,4.55c1.426,1.428,2.859,2.305,4.547,2.963
						c1.634,0.633,3.5,1.068,6.233,1.193c2.74,0.124,3.614,0.155,10.588,0.155c6.976,0,7.848-0.031,10.589-0.155
						c2.734-0.125,4.598-0.559,6.233-1.193c1.689-0.657,3.12-1.535,4.547-2.963c1.428-1.428,2.306-2.86,2.962-4.55
						c0.636-1.631,1.07-3.498,1.195-6.233c0.126-2.737,0.155-3.614,0.155-10.587c0-6.973-0.029-7.849-0.155-10.588
						c-0.124-2.732-0.559-4.6-1.195-6.233c-0.655-1.689-1.534-3.122-2.962-4.549c-1.427-1.428-2.858-2.305-4.547-2.961
						c-1.635-0.636-3.499-1.07-6.233-1.195C581.62,817.069,580.748,817.039,573.772,817.039"/>
					<path style="fill:#F0E7C5;" d="M573.772,829.532c-7.283,0-13.187,5.903-13.187,13.186c0,7.283,5.904,13.186,13.187,13.186
						c7.284,0,13.188-5.903,13.188-13.186C586.96,835.435,581.056,829.532,573.772,829.532 M573.772,851.278
						c-4.727,0-8.561-3.832-8.561-8.56c0-4.728,3.834-8.56,8.561-8.56c4.728,0,8.56,3.832,8.56,8.56
						C582.332,847.446,578.5,851.278,573.772,851.278"/>
					<path style="fill:#F0E7C5;" d="M590.561,829.011c0,1.701-1.378,3.082-3.081,3.082c-1.701,0-3.082-1.381-3.082-3.082
						c0-1.701,1.38-3.081,3.082-3.081C589.183,825.93,590.561,827.31,590.561,829.011"/>
				</g>
			</g>
		</g>
	</g>
	<g>
		<text transform="matrix(1 0 0 1 673.4274 641.7867)" style="fill:#1E1942; font-family:'Rowdies-Bold'; font-size:124.6522px;">Try Glamping</text>
	</g>
</g>
</svg>
